<svg id="visual" viewBox="0 0 960 100" width="960" height="100" xmlns="http://www.w3.org/2000/svg" xmlns:xlink="http://www.w3.org/1999/xlink" version="1.1"><path d="M0 33L480 19L960 29L960 0L480 0L0 0Z" fill="#131313"></path><path d="M0 48L480 29L960 44L960 27L480 17L0 31Z" fill="#23243b"></path><path d="M0 62L480 49L960 59L960 42L480 27L0 46Z" fill="#303667"></path><path d="M0 72L480 59L960 71L960 57L480 47L0 60Z" fill="#394a97"></path><path d="M0 79L480 67L960 82L960 69L480 57L0 70Z" fill="#415dca"></path><path d="M0 101L480 101L960 101L960 80L480 65L0 77Z" fill="#4572ff"></path></svg>