<svg id="visual" viewBox="0 0 900 100" width="900" height="100" xmlns="http://www.w3.org/2000/svg" xmlns:xlink="http://www.w3.org/1999/xlink" version="1.1"><rect x="0" y="0" width="900" height="100" fill="#131313"></rect><path d="M0 54L90 71L180 65L270 69L360 52L450 54L540 82L630 59L720 77L810 74L900 59L900 0L810 0L720 0L630 0L540 0L450 0L360 0L270 0L180 0L90 0L0 0Z" fill="#131313"></path><path d="M0 52L90 58L180 60L270 39L360 50L450 59L540 43L630 64L720 51L810 50L900 44L900 0L810 0L720 0L630 0L540 0L450 0L360 0L270 0L180 0L90 0L0 0Z" fill="#111112"></path><path d="M0 45L90 50L180 38L270 38L360 52L450 44L540 36L630 44L720 31L810 30L900 40L900 0L810 0L720 0L630 0L540 0L450 0L360 0L270 0L180 0L90 0L0 0Z" fill="#0e0e10"></path><path d="M0 31L90 37L180 23L270 25L360 29L450 27L540 23L630 34L720 38L810 21L900 29L900 0L810 0L720 0L630 0L540 0L450 0L360 0L270 0L180 0L90 0L0 0Z" fill="#0b0b0f"></path><path d="M0 20L90 10L180 16L270 12L360 15L450 13L540 19L630 11L720 16L810 20L900 7L900 0L810 0L720 0L630 0L540 0L450 0L360 0L270 0L180 0L90 0L0 0Z" fill="#08080d"></path></svg>