<svg id="visual" viewBox="0 0 960 300" width="960" height="300" xmlns="http://www.w3.org/2000/svg" xmlns:xlink="http://www.w3.org/1999/xlink" version="1.1"><rect x="0" y="0" width="960" height="300" fill="#222831"></rect><path d="M0 150L22.8 152.3C45.7 154.7 91.3 159.3 137 165.8C182.7 172.3 228.3 180.7 274 184.5C319.7 188.3 365.3 187.7 411.2 178.2C457 168.7 503 150.3 548.8 142.2C594.7 134 640.3 136 686 135.8C731.7 135.7 777.3 133.3 823 143.7C868.7 154 914.3 177 937.2 188.5L960 200L960 0L937.2 0C914.3 0 868.7 0 823 0C777.3 0 731.7 0 686 0C640.3 0 594.7 0 548.8 0C503 0 457 0 411.2 0C365.3 0 319.7 0 274 0C228.3 0 182.7 0 137 0C91.3 0 45.7 0 22.8 0L0 0Z" fill="#00c1ff"></path><path d="M0 135L22.8 129.8C45.7 124.7 91.3 114.3 137 115.5C182.7 116.7 228.3 129.3 274 131.5C319.7 133.7 365.3 125.3 411.2 118.2C457 111 503 105 548.8 103.7C594.7 102.3 640.3 105.7 686 114.7C731.7 123.7 777.3 138.3 823 138.8C868.7 139.3 914.3 125.7 937.2 118.8L960 112L960 0L937.2 0C914.3 0 868.7 0 823 0C777.3 0 731.7 0 686 0C640.3 0 594.7 0 548.8 0C503 0 457 0 411.2 0C365.3 0 319.7 0 274 0C228.3 0 182.7 0 137 0C91.3 0 45.7 0 22.8 0L0 0Z" fill="#00adff"></path><path d="M0 90L22.8 90.8C45.7 91.7 91.3 93.3 137 93C182.7 92.7 228.3 90.3 274 86C319.7 81.7 365.3 75.3 411.2 75.8C457 76.3 503 83.7 548.8 86.7C594.7 89.7 640.3 88.3 686 86C731.7 83.7 777.3 80.3 823 81.3C868.7 82.3 914.3 87.7 937.2 90.3L960 93L960 0L937.2 0C914.3 0 868.7 0 823 0C777.3 0 731.7 0 686 0C640.3 0 594.7 0 548.8 0C503 0 457 0 411.2 0C365.3 0 319.7 0 274 0C228.3 0 182.7 0 137 0C91.3 0 45.7 0 22.8 0L0 0Z" fill="#0097ff"></path><path d="M0 55L22.8 55C45.7 55 91.3 55 137 60.2C182.7 65.3 228.3 75.7 274 73.7C319.7 71.7 365.3 57.3 411.2 50C457 42.7 503 42.3 548.8 41.7C594.7 41 640.3 40 686 48.5C731.7 57 777.3 75 823 85.8C868.7 96.7 914.3 100.3 937.2 102.2L960 104L960 0L937.2 0C914.3 0 868.7 0 823 0C777.3 0 731.7 0 686 0C640.3 0 594.7 0 548.8 0C503 0 457 0 411.2 0C365.3 0 319.7 0 274 0C228.3 0 182.7 0 137 0C91.3 0 45.7 0 22.8 0L0 0Z" fill="#007ff9"></path><path d="M0 22L22.8 23C45.7 24 91.3 26 137 28.5C182.7 31 228.3 34 274 38C319.7 42 365.3 47 411.2 48C457 49 503 46 548.8 47.5C594.7 49 640.3 55 686 50C731.7 45 777.3 29 823 25.2C868.7 21.3 914.3 29.7 937.2 33.8L960 38L960 0L937.2 0C914.3 0 868.7 0 823 0C777.3 0 731.7 0 686 0C640.3 0 594.7 0 548.8 0C503 0 457 0 411.2 0C365.3 0 319.7 0 274 0C228.3 0 182.7 0 137 0C91.3 0 45.7 0 22.8 0L0 0Z" fill="#1d64ef"></path></svg>