<svg id="visual" viewBox="0 0 960 300" width="960" height="300" xmlns="http://www.w3.org/2000/svg" xmlns:xlink="http://www.w3.org/1999/xlink" version="1.1"><rect x="0" y="0" width="960" height="300" fill="#222831"></rect><path d="M0 127L22.8 138C45.7 149 91.3 171 137 174C182.7 177 228.3 161 274 160C319.7 159 365.3 173 411.2 169.2C457 165.3 503 143.7 548.8 145C594.7 146.3 640.3 170.7 686 178.5C731.7 186.3 777.3 177.7 823 167.3C868.7 157 914.3 145 937.2 139L960 133L960 0L937.2 0C914.3 0 868.7 0 823 0C777.3 0 731.7 0 686 0C640.3 0 594.7 0 548.8 0C503 0 457 0 411.2 0C365.3 0 319.7 0 274 0C228.3 0 182.7 0 137 0C91.3 0 45.7 0 22.8 0L0 0Z" fill="#00c1ff"></path><path d="M0 93L22.8 95.5C45.7 98 91.3 103 137 113.2C182.7 123.3 228.3 138.7 274 142.5C319.7 146.3 365.3 138.7 411.2 128.8C457 119 503 107 548.8 109.8C594.7 112.7 640.3 130.3 686 131.8C731.7 133.3 777.3 118.7 823 122.8C868.7 127 914.3 150 937.2 161.5L960 173L960 0L937.2 0C914.3 0 868.7 0 823 0C777.3 0 731.7 0 686 0C640.3 0 594.7 0 548.8 0C503 0 457 0 411.2 0C365.3 0 319.7 0 274 0C228.3 0 182.7 0 137 0C91.3 0 45.7 0 22.8 0L0 0Z" fill="#00adff"></path><path d="M0 115L22.8 108.2C45.7 101.3 91.3 87.7 137 88.7C182.7 89.7 228.3 105.3 274 104.5C319.7 103.7 365.3 86.3 411.2 76.2C457 66 503 63 548.8 65.5C594.7 68 640.3 76 686 80.2C731.7 84.3 777.3 84.7 823 85C868.7 85.3 914.3 85.7 937.2 85.8L960 86L960 0L937.2 0C914.3 0 868.7 0 823 0C777.3 0 731.7 0 686 0C640.3 0 594.7 0 548.8 0C503 0 457 0 411.2 0C365.3 0 319.7 0 274 0C228.3 0 182.7 0 137 0C91.3 0 45.7 0 22.8 0L0 0Z" fill="#0097ff"></path><path d="M0 103L22.8 97.8C45.7 92.7 91.3 82.3 137 77.5C182.7 72.7 228.3 73.3 274 74.2C319.7 75 365.3 76 411.2 77.2C457 78.3 503 79.7 548.8 81.7C594.7 83.7 640.3 86.3 686 83C731.7 79.7 777.3 70.3 823 65.3C868.7 60.3 914.3 59.7 937.2 59.3L960 59L960 0L937.2 0C914.3 0 868.7 0 823 0C777.3 0 731.7 0 686 0C640.3 0 594.7 0 548.8 0C503 0 457 0 411.2 0C365.3 0 319.7 0 274 0C228.3 0 182.7 0 137 0C91.3 0 45.7 0 22.8 0L0 0Z" fill="#007ff9"></path><path d="M0 40L22.8 35.8C45.7 31.7 91.3 23.3 137 20.7C182.7 18 228.3 21 274 21.5C319.7 22 365.3 20 411.2 20.5C457 21 503 24 548.8 25.5C594.7 27 640.3 27 686 26C731.7 25 777.3 23 823 27C868.7 31 914.3 41 937.2 46L960 51L960 0L937.2 0C914.3 0 868.7 0 823 0C777.3 0 731.7 0 686 0C640.3 0 594.7 0 548.8 0C503 0 457 0 411.2 0C365.3 0 319.7 0 274 0C228.3 0 182.7 0 137 0C91.3 0 45.7 0 22.8 0L0 0Z" fill="#1d64ef"></path></svg>