<svg id="visual" viewBox="0 0 960 300" width="960" height="300" xmlns="http://www.w3.org/2000/svg" xmlns:xlink="http://www.w3.org/1999/xlink" version="1.1"><rect x="0" y="0" width="960" height="300" fill="#222831"></rect><path d="M0 133L22.8 136C45.7 139 91.3 145 137 144.3C182.7 143.7 228.3 136.3 274 140C319.7 143.7 365.3 158.3 411.2 154.7C457 151 503 129 548.8 125C594.7 121 640.3 135 686 133.7C731.7 132.3 777.3 115.7 823 111.3C868.7 107 914.3 115 937.2 119L960 123L960 301L937.2 301C914.3 301 868.7 301 823 301C777.3 301 731.7 301 686 301C640.3 301 594.7 301 548.8 301C503 301 457 301 411.2 301C365.3 301 319.7 301 274 301C228.3 301 182.7 301 137 301C91.3 301 45.7 301 22.8 301L0 301Z" fill="#00c1ff"></path><path d="M0 200L22.8 192.3C45.7 184.7 91.3 169.3 137 158.5C182.7 147.7 228.3 141.3 274 151.3C319.7 161.3 365.3 187.7 411.2 188.5C457 189.3 503 164.7 548.8 149.8C594.7 135 640.3 130 686 131.5C731.7 133 777.3 141 823 151.8C868.7 162.7 914.3 176.3 937.2 183.2L960 190L960 301L937.2 301C914.3 301 868.7 301 823 301C777.3 301 731.7 301 686 301C640.3 301 594.7 301 548.8 301C503 301 457 301 411.2 301C365.3 301 319.7 301 274 301C228.3 301 182.7 301 137 301C91.3 301 45.7 301 22.8 301L0 301Z" fill="#00adff"></path><path d="M0 209L22.8 208.8C45.7 208.7 91.3 208.3 137 205C182.7 201.7 228.3 195.3 274 194.5C319.7 193.7 365.3 198.3 411.2 195.8C457 193.3 503 183.7 548.8 184.7C594.7 185.7 640.3 197.3 686 206.7C731.7 216 777.3 223 823 221.7C868.7 220.3 914.3 210.7 937.2 205.8L960 201L960 301L937.2 301C914.3 301 868.7 301 823 301C777.3 301 731.7 301 686 301C640.3 301 594.7 301 548.8 301C503 301 457 301 411.2 301C365.3 301 319.7 301 274 301C228.3 301 182.7 301 137 301C91.3 301 45.7 301 22.8 301L0 301Z" fill="#0097ff"></path><path d="M0 237L22.8 232.3C45.7 227.7 91.3 218.3 137 218.2C182.7 218 228.3 227 274 231.7C319.7 236.3 365.3 236.7 411.2 232.7C457 228.7 503 220.3 548.8 215.2C594.7 210 640.3 208 686 210.2C731.7 212.3 777.3 218.7 823 222.8C868.7 227 914.3 229 937.2 230L960 231L960 301L937.2 301C914.3 301 868.7 301 823 301C777.3 301 731.7 301 686 301C640.3 301 594.7 301 548.8 301C503 301 457 301 411.2 301C365.3 301 319.7 301 274 301C228.3 301 182.7 301 137 301C91.3 301 45.7 301 22.8 301L0 301Z" fill="#007ff9"></path><path d="M0 246L22.8 251.5C45.7 257 91.3 268 137 268.5C182.7 269 228.3 259 274 260.2C319.7 261.3 365.3 273.7 411.2 272.7C457 271.7 503 257.3 548.8 248.7C594.7 240 640.3 237 686 238.2C731.7 239.3 777.3 244.7 823 249.8C868.7 255 914.3 260 937.2 262.5L960 265L960 301L937.2 301C914.3 301 868.7 301 823 301C777.3 301 731.7 301 686 301C640.3 301 594.7 301 548.8 301C503 301 457 301 411.2 301C365.3 301 319.7 301 274 301C228.3 301 182.7 301 137 301C91.3 301 45.7 301 22.8 301L0 301Z" fill="#1d64ef"></path></svg>