<svg id="visual" viewBox="0 0 960 100" width="960" height="100" xmlns="http://www.w3.org/2000/svg" xmlns:xlink="http://www.w3.org/1999/xlink" version="1.1"><path d="M0 21L480 29L960 28L960 0L480 0L0 0Z" fill="#4572ff"></path><path d="M0 31L480 41L960 38L960 26L480 27L0 19Z" fill="#415dca"></path><path d="M0 38L480 49L960 46L960 36L480 39L0 29Z" fill="#394a97"></path><path d="M0 48L480 62L960 55L960 44L480 47L0 36Z" fill="#303667"></path><path d="M0 87L480 82L960 87L960 53L480 60L0 46Z" fill="#23243b"></path><path d="M0 101L480 101L960 101L960 85L480 80L0 85Z" fill="#131313"></path></svg>