<svg id="visual" viewBox="0 0 960 100" width="960" height="100" xmlns="http://www.w3.org/2000/svg" xmlns:xlink="http://www.w3.org/1999/xlink" version="1.1"><path d="M0 7L480 7L960 7L960 0L480 0L0 0Z" fill="#08080d"></path><path d="M0 19L480 17L960 21L960 5L480 5L0 5Z" fill="#0a0a0e"></path><path d="M0 45L480 44L960 50L960 19L480 15L0 17Z" fill="#0c0c0f"></path><path d="M0 75L480 64L960 71L960 48L480 42L0 43Z" fill="#0e0e10"></path><path d="M0 86L480 83L960 82L960 69L480 62L0 73Z" fill="#101011"></path><path d="M0 96L480 96L960 95L960 80L480 81L0 84Z" fill="#111112"></path><path d="M0 101L480 101L960 101L960 93L480 94L0 94Z" fill="#131313"></path></svg>