<svg id="visual" viewBox="0 0 960 100" width="960" height="100" xmlns="http://www.w3.org/2000/svg" xmlns:xlink="http://www.w3.org/1999/xlink" version="1.1"><path d="M0 8L480 11L960 8L960 0L480 0L0 0Z" fill="#131313"></path><path d="M0 20L480 29L960 28L960 6L480 9L0 6Z" fill="#28161d"></path><path d="M0 29L480 42L960 39L960 26L480 27L0 18Z" fill="#3c1727"></path><path d="M0 65L480 70L960 61L960 37L480 40L0 27Z" fill="#501631"></path><path d="M0 77L480 78L960 73L960 59L480 68L0 63Z" fill="#66103c"></path><path d="M0 101L480 101L960 101L960 71L480 76L0 75Z" fill="#7c0047"></path></svg>